<svg xmlns="http://www.w3.org/2000/svg" viewBox="0 0 500 500"><g id="freepik--background-complete--inject-142"><g><path d="M305.26,141.7c.14,0,.24,.57,.22,1.26-.02,.69-.15,1.24-.3,1.24s-.24-.56-.22-1.26c.02-.7,.15-1.25,.3-1.24Z" style="fill:#e0e0e0;"></path><path d="M307.17,131.99c.14,.05-.14,1.12-.49,2.43-.36,1.31-.67,2.38-.81,2.35-.14-.02-.06-1.15,.31-2.49,.36-1.34,.86-2.35,1-2.3Z" style="fill:#e0e0e0;"></path><path d="M312.03,123.4c.11,.09-.51,1.01-1.28,2.13-.77,1.12-1.4,2.03-1.53,1.96-.12-.07,.31-1.11,1.1-2.25,.78-1.14,1.6-1.93,1.7-1.84Z" style="fill:#e0e0e0;"></path><path d="M319.42,116.83c.08,.12-.79,.82-1.87,1.64-1.08,.82-1.98,1.47-2.08,1.36-.1-.1,.66-.94,1.76-1.78,1.1-.84,2.11-1.35,2.18-1.23Z" style="fill:#e0e0e0;"></path><path d="M328.26,112.34c.05,.13-.92,.69-2.16,1.24-1.25,.55-2.31,.9-2.37,.77-.07-.13,.9-.68,2.16-1.24,1.26-.56,2.32-.9,2.37-.77Z" style="fill:#e0e0e0;"></path><path d="M337.74,109.44c.03,.14-1.01,.54-2.33,.89-1.32,.35-2.42,.53-2.46,.39-.04-.14,1-.54,2.33-.89,1.33-.36,2.43-.53,2.46-.39Z" style="fill:#e0e0e0;"></path><path d="M347.49,107.6c.02,.14-1.05,.44-2.4,.67-1.35,.23-2.46,.29-2.49,.15-.03-.14,1.05-.44,2.4-.67,1.35-.23,2.47-.3,2.49-.15Z" style="fill:#e0e0e0;"></path><path d="M357.36,106.62c0,.14-1.1,.33-2.46,.42-1.36,.09-2.48,.04-2.49-.1-.02-.14,1.08-.33,2.46-.42,1.37-.09,2.49-.04,2.49,.1Z" style="fill:#e0e0e0;"></path><path d="M367.25,107.27c-.02,.14-1.14,.14-2.49-.01-1.35-.15-2.45-.39-2.44-.53,0-.14,1.12-.14,2.49,.01,1.37,.15,2.46,.39,2.44,.53Z" style="fill:#e0e0e0;"></path><path d="M376.87,109.65c-.05,.14-1.15-.07-2.45-.45-1.31-.39-2.34-.81-2.31-.95,.03-.14,1.13,.06,2.45,.45,1.32,.39,2.35,.82,2.3,.95Z" style="fill:#e0e0e0;"></path><path d="M385.87,113.78c-.07,.12-1.11-.28-2.32-.91-1.21-.63-2.14-1.24-2.08-1.37,.06-.13,1.1,.28,2.32,.91,1.22,.63,2.15,1.25,2.08,1.37Z" style="fill:#e0e0e0;"></path><path d="M393.84,119.66c-.1,.11-.98-.56-2.03-1.43-1.05-.87-1.88-1.61-1.79-1.73,.08-.12,1.06,.45,2.12,1.32,1.06,.88,1.8,1.73,1.7,1.83Z" style="fill:#e0e0e0;"></path><path d="M400.27,127.18c-.12,.08-.82-.78-1.65-1.86-.82-1.09-1.46-2-1.35-2.09,.11-.09,.93,.67,1.76,1.78,.83,1.1,1.35,2.1,1.23,2.18Z" style="fill:#e0e0e0;"></path><path d="M404.82,135.98c-.14,.05-.63-.94-1.19-2.19-.55-1.24-.97-2.27-.84-2.34,.13-.07,.75,.87,1.31,2.13,.56,1.26,.84,2.35,.71,2.4Z" style="fill:#e0e0e0;"></path><path d="M407.25,145.57c-.14,.02-.39-1.06-.65-2.4-.26-1.34-.43-2.43-.29-2.47,.14-.04,.54,1.02,.8,2.37,.26,1.35,.28,2.48,.14,2.5Z" style="fill:#e0e0e0;"></path><path d="M407.29,155.47c-.14-.02-.11-1.13-.03-2.48,.08-1.36,.18-2.46,.33-2.46,.14,0,.28,1.12,.19,2.5-.08,1.38-.35,2.47-.49,2.45Z" style="fill:#e0e0e0;"></path><path d="M404.65,165c-.13-.06,.17-1.13,.67-2.39,.44-1.28,.85-2.32,1-2.28,.13,.03-.06,1.14-.51,2.45-.51,1.29-1.03,2.28-1.16,2.22Z" style="fill:#e0e0e0;"></path><path d="M399.26,173.28c-.11-.1,.55-.99,1.38-2.07,.83-1.08,1.52-1.94,1.64-1.87,.12,.08-.38,1.09-1.23,2.18-.84,1.1-1.69,1.84-1.79,1.75Z" style="fill:#e0e0e0;"></path><path d="M391.51,179.41c-.07-.13,.86-.74,1.99-1.49,1.13-.75,2.06-1.36,2.15-1.24,.09,.11-.71,.91-1.86,1.68-1.16,.77-2.21,1.18-2.27,1.05Z" style="fill:#e0e0e0;"></path><path d="M382.05,182.12c0-.15,1.09-.3,2.42-.53,1.33-.23,2.42-.44,2.46-.3,.04,.13-1,.58-2.37,.81-1.37,.24-2.5,.16-2.51,.02Z" style="fill:#e0e0e0;"></path><path d="M372.48,180.01c.07-.13,1.09,.3,2.36,.77,1.26,.47,2.32,.81,2.29,.95-.03,.14-1.16,.02-2.47-.47-1.31-.48-2.24-1.13-2.17-1.25Z" style="fill:#e0e0e0;"></path><path d="M365.06,173.54c.12-.08,.84,.76,1.75,1.76,.91,1,1.67,1.8,1.58,1.91-.09,.11-1.03-.53-1.96-1.56-.94-1.03-1.48-2.03-1.36-2.11Z" style="fill:#e0e0e0;"></path><path d="M361.77,164.32c.15,0,.28,1.09,.55,2.41,.27,1.32,.56,2.38,.42,2.44-.13,.05-.66-.96-.93-2.33-.28-1.37-.18-2.51-.04-2.51Z" style="fill:#e0e0e0;"></path><path d="M364.72,155.05c.12,.09-.46,1.03-1.07,2.23-.62,1.19-1.05,2.21-1.19,2.16-.13-.04,.08-1.16,.73-2.4,.64-1.24,1.43-2.07,1.54-1.99Z" style="fill:#e0e0e0;"></path><path d="M372.37,148.87c.06,.13-.88,.71-2.03,1.42-1.15,.71-2.07,1.32-2.17,1.2-.09-.11,.71-.91,1.89-1.64,1.18-.73,2.25-1.11,2.31-.98Z" style="fill:#e0e0e0;"></path><path d="M381.83,146.01c.02,.14-1.06,.41-2.38,.7-1.33,.29-2.41,.51-2.46,.37-.04-.13,.99-.58,2.35-.88,1.35-.3,2.48-.33,2.5-.19Z" style="fill:#e0e0e0;"></path><path d="M391.73,145.79c-.01,.14-1.13,.22-2.49,.17-1.36-.05-2.47-.21-2.47-.35,0-.14,1.11-.22,2.49-.17,1.38,.05,2.48,.21,2.47,.35Z" style="fill:#e0e0e0;"></path><path d="M401.44,147.75c-.05,.14-1.13-.1-2.45-.44-1.32-.34-2.38-.66-2.35-.81,.03-.14,1.15-.04,2.48,.3,1.34,.35,2.36,.81,2.32,.94Z" style="fill:#e0e0e0;"></path><path d="M410.42,151.9c-.08,.12-1.07-.37-2.27-1.02-1.2-.65-2.15-1.2-2.09-1.34,.06-.13,1.13,.22,2.34,.88,1.22,.65,2.1,1.36,2.02,1.48Z" style="fill:#e0e0e0;"></path><path d="M418,158.25c-.11,.09-.97-.61-1.93-1.57-.94-.99-1.73-1.75-1.63-1.88,.08-.1,1.04,.5,1.99,1.5,.98,.98,1.68,1.85,1.57,1.94Z" style="fill:#e0e0e0;"></path><path d="M423.54,166.44c-.13,.06-.72-.88-1.4-2.05-.68-1.18-1.21-2.15-1.09-2.23,.12-.08,.85,.77,1.54,1.97,.69,1.19,1.08,2.25,.95,2.31Z" style="fill:#e0e0e0;"></path><path d="M426.85,175.77c-.14,.03-.5-1.02-.87-2.33-.38-1.31-.64-2.38-.51-2.43,.13-.05,.63,.96,1.01,2.29,.39,1.32,.51,2.44,.37,2.47Z" style="fill:#e0e0e0;"></path><path d="M428.09,185.6c-.14,0-.35-1.1-.45-2.45-.1-1.36-.07-2.47,.07-2.49s.34,1.08,.45,2.45c.11,1.37,.07,2.49-.07,2.49Z" style="fill:#e0e0e0;"></path><path d="M427.51,195.49c-.14-.02-.14-1.14,0-2.49,.14-1.36,.37-2.45,.51-2.44,.14,0,.15,1.12,0,2.49-.14,1.37-.37,2.46-.51,2.44Z" style="fill:#e0e0e0;"></path><path d="M425.27,205.15c-.14-.05,.05-1.15,.41-2.46,.36-1.31,.77-2.35,.91-2.32,.14,.03-.04,1.13-.41,2.46-.37,1.33-.78,2.37-.91,2.32Z" style="fill:#e0e0e0;"></path><path d="M421.45,214.29c-.13-.07,.25-1.12,.84-2.34,.59-1.23,1.11-2.21,1.25-2.15,.12,.05-.18,1.13-.78,2.37-.6,1.24-1.19,2.19-1.31,2.12Z" style="fill:#e0e0e0;"></path><path d="M416.41,222.83c-.12-.08,.38-1.08,1.11-2.23,.73-1.15,1.42-2.03,1.55-1.96s-.37,1.07-1.11,2.24c-.73,1.16-1.43,2.04-1.55,1.96Z" style="fill:#e0e0e0;"></path><path d="M410.46,230.76c-.11-.09,.49-1.04,1.33-2.11,.85-1.07,1.62-1.87,1.74-1.79,.12,.09-.48,1.03-1.33,2.11-.85,1.08-1.63,1.88-1.74,1.79Z" style="fill:#e0e0e0;"></path><path d="M403.86,238.16c-.1-.1,.57-.99,1.49-2,.93-1,1.77-1.74,1.88-1.64,.11,.1-.56,.99-1.49,2-.93,1.01-1.77,1.74-1.88,1.64Z" style="fill:#e0e0e0;"></path><path d="M396.81,245.15c-.1-.1,.62-.96,1.6-1.91,.98-.95,1.86-1.64,1.97-1.54,.1,.1-.62,.96-1.6,1.91-.99,.95-1.87,1.64-1.97,1.54Z" style="fill:#e0e0e0;"></path><path d="M389.49,251.84c-.1-.11,.65-.94,1.67-1.85,1.02-.92,1.92-1.57,2.02-1.47,.1,.11-.65,.94-1.67,1.85-1.02,.92-1.92,1.58-2.02,1.47Z" style="fill:#e0e0e0;"></path><path d="M383.9,256.78c-.09-.11,.25-.57,.77-1.02,.52-.46,1.02-.74,1.11-.63,.09,.11-.25,.57-.77,1.02-.52,.46-1.02,.74-1.11,.63Z" style="fill:#e0e0e0;"></path></g><g><path d="M95.6,235.88c.12-.08,.52,.33,.89,.91,.37,.58,.57,1.11,.45,1.19-.12,.08-.52-.33-.89-.91-.37-.58-.58-1.12-.46-1.19Z" style="fill:#e0e0e0;"></path><path d="M90.73,227.12c.13-.06,.75,.88,1.39,2.1,.64,1.22,1.06,2.27,.93,2.34-.13,.07-.75-.87-1.39-2.1-.64-1.23-1.06-2.28-.93-2.34Z" style="fill:#e0e0e0;"></path><path d="M86.74,217.93c.13-.05,.66,.95,1.18,2.22,.52,1.28,.83,2.36,.7,2.42-.13,.06-.66-.94-1.18-2.22-.52-1.29-.83-2.37-.7-2.42Z" style="fill:#e0e0e0;"></path><path d="M83.68,208.39c.14-.04,.57,1.01,.95,2.33,.39,1.32,.59,2.43,.45,2.48-.14,.04-.56-1-.95-2.33-.39-1.33-.59-2.44-.45-2.48Z" style="fill:#e0e0e0;"></path><path d="M81.61,198.59c.14-.02,.46,1.06,.71,2.42,.25,1.36,.34,2.48,.2,2.51-.14,.03-.46-1.05-.71-2.42-.25-1.36-.34-2.49-.2-2.51Z" style="fill:#e0e0e0;"></path><path d="M80.58,188.62c.14,0,.35,1.1,.45,2.48,.1,1.38,.07,2.5-.07,2.52-.14,.02-.34-1.09-.45-2.48-.11-1.38-.07-2.51,.07-2.52Z" style="fill:#e0e0e0;"></path><path d="M80.65,178.6c.14,0,.22,1.14,.17,2.51-.05,1.38-.2,2.5-.35,2.49-.14,0-.22-1.13-.17-2.51,.05-1.39,.2-2.5,.35-2.49Z" style="fill:#e0e0e0;"></path><path d="M81.87,168.66c.14,.03,.09,1.15-.12,2.52-.21,1.36-.49,2.45-.64,2.44-.14-.02-.09-1.14,.12-2.52,.21-1.37,.49-2.46,.64-2.44Z" style="fill:#e0e0e0;"></path><path d="M84.29,158.94c.14,.04-.05,1.16-.43,2.48-.37,1.33-.79,2.38-.93,2.34-.14-.03,.05-1.15,.43-2.48,.38-1.34,.79-2.39,.93-2.34Z" style="fill:#e0e0e0;"></path><path d="M87.87,149.58c.13,.06-.19,1.14-.73,2.41-.53,1.27-1.07,2.26-1.21,2.21-.13-.05,.19-1.13,.73-2.41,.54-1.28,1.08-2.27,1.21-2.21Z" style="fill:#e0e0e0;"></path><path d="M92.56,140.72c.12,.08-.33,1.11-1.01,2.31-.68,1.2-1.34,2.12-1.46,2.05-.13-.07,.32-1.1,1.01-2.31,.69-1.21,1.34-2.13,1.46-2.05Z" style="fill:#e0e0e0;"></path><path d="M98.27,132.5c.11,.09-.46,1.06-1.28,2.17-.82,1.11-1.58,1.94-1.7,1.86-.12-.08,.45-1.05,1.28-2.17,.83-1.11,1.59-1.95,1.7-1.86Z" style="fill:#e0e0e0;"></path><path d="M104.95,125.04c.1,.1-.59,1-1.54,1.99-.95,1-1.81,1.73-1.92,1.63s.58-.99,1.54-1.99c.96-1.01,1.82-1.74,1.92-1.63Z" style="fill:#e0e0e0;"></path><path d="M112.53,118.49c.09,.12-.71,.91-1.78,1.78-1.07,.87-2.02,1.48-2.11,1.37-.09-.11,.7-.9,1.78-1.78,1.08-.87,2.02-1.49,2.11-1.37Z" style="fill:#e0e0e0;"></path><path d="M120.9,113c.07,.13-.83,.81-2,1.52-1.18,.72-2.19,1.2-2.27,1.08-.08-.12,.82-.8,2-1.52,1.19-.72,2.2-1.2,2.27-1.08Z" style="fill:#e0e0e0;"></path><path d="M129.95,108.71c.05,.13-.93,.69-2.2,1.23-1.27,.55-2.34,.88-2.4,.75-.06-.13,.92-.68,2.2-1.23,1.28-.55,2.35-.89,2.4-.75Z" style="fill:#e0e0e0;"></path><path d="M139.51,105.71c.03,.14-1.02,.55-2.35,.92-1.33,.37-2.44,.55-2.48,.42s1.01-.55,2.35-.92c1.34-.37,2.45-.56,2.48-.42Z" style="fill:#e0e0e0;"></path><path d="M149.37,104.02c.01,.14-1.08,.41-2.44,.6-1.36,.19-2.49,.23-2.52,.09-.03-.14,1.07-.41,2.44-.6,1.37-.19,2.5-.23,2.51-.09Z" style="fill:#e0e0e0;"></path><path d="M159.38,103.62c0,.14-1.13,.27-2.5,.28-1.38,0-2.5-.1-2.51-.24,0-.14,1.11-.27,2.5-.28,1.39,0,2.51,.1,2.51,.24Z" style="fill:#e0e0e0;"></path><path d="M169.35,104.54c-.02,.14-1.15,.12-2.52-.05-1.37-.17-2.46-.43-2.45-.57,.01-.14,1.14-.12,2.52,.06,1.38,.17,2.48,.43,2.45,.57Z" style="fill:#e0e0e0;"></path><path d="M179.11,106.8c-.04,.14-1.16-.04-2.49-.4-1.33-.36-2.38-.76-2.35-.9s1.14,.04,2.49,.4c1.34,.36,2.4,.76,2.35,.9Z" style="fill:#e0e0e0;"></path><path d="M188.44,110.42c-.06,.13-1.14-.21-2.4-.75-1.27-.54-2.25-1.09-2.2-1.23,.05-.13,1.13,.2,2.4,.75,1.28,.55,2.26,1.1,2.2,1.23Z" style="fill:#e0e0e0;"></path><path d="M197.15,115.37c-.08,.12-1.09-.37-2.27-1.1-1.17-.73-2.06-1.42-2-1.54,.08-.14,1.09,.36,2.27,1.09,1.18,.73,2.07,1.42,1.99,1.54Z" style="fill:#e0e0e0;"></path><path d="M205.08,121.48c-.1,.11-1.04-.52-2.1-1.39-1.06-.88-1.85-1.68-1.77-1.79s1.03,.51,2.1,1.39c1.07,.88,1.86,1.69,1.77,1.79Z" style="fill:#e0e0e0;"></path><path d="M212.2,128.53c-.11,.1-.97-.64-1.92-1.63-.95-1-1.64-1.89-1.54-1.99,.1-.1,.96,.63,1.92,1.63,.96,1.01,1.65,1.9,1.54,1.99Z" style="fill:#e0e0e0;"></path><path d="M218.52,136.31c-.12,.08-.89-.73-1.74-1.82-.84-1.09-1.44-2.05-1.32-2.14,.11-.09,.89,.73,1.74,1.83,.85,1.1,1.44,2.06,1.32,2.14Z" style="fill:#e0e0e0;"></path><path d="M224.08,144.64c-.12,.07-.82-.81-1.57-1.97-.74-1.16-1.25-2.17-1.13-2.25,.12-.08,.82,.8,1.57,1.97,.75,1.17,1.25,2.18,1.13,2.25Z" style="fill:#e0e0e0;"></path><path d="M228.97,153.38c-.13,.07-.76-.87-1.41-2.09-.65-1.22-1.08-2.26-.95-2.33,.13-.07,.76,.86,1.41,2.09,.65,1.22,1.08,2.27,.95,2.33Z" style="fill:#e0e0e0;"></path><path d="M232.24,160.16c-.13,.06-.47-.4-.76-1.02-.29-.63-.42-1.18-.29-1.24,.13-.06,.47,.4,.76,1.03,.29,.63,.42,1.18,.29,1.24Z" style="fill:#e0e0e0;"></path></g><g><path d="M109.67,281.18c-.06-.13,.4-.47,1.03-.75,.63-.29,1.19-.41,1.25-.28,.05,.13-.41,.47-1.03,.75-.62,.28-1.18,.41-1.25,.28Z" style="fill:#e0e0e0;"></path><path d="M101.51,286.59c-.09-.11,.66-.92,1.75-1.74,1.09-.82,2.08-1.33,2.16-1.21,.08,.12-.77,.81-1.84,1.63-1.07,.81-1.97,1.44-2.07,1.33Z" style="fill:#e0e0e0;"></path><path d="M94.86,293.76c-.12-.08,.49-1,1.36-2.05,.87-1.05,1.66-1.82,1.76-1.72,.1,.1-.5,1.02-1.36,2.05-.86,1.04-1.65,1.81-1.76,1.72Z" style="fill:#e0e0e0;"></path><path d="M89.91,302.2c-.13-.06,.27-1.09,.9-2.29,.63-1.21,1.24-2.13,1.36-2.06,.12,.07-.28,1.1-.9,2.3-.62,1.19-1.23,2.11-1.36,2.05Z" style="fill:#e0e0e0;"></path><path d="M86.79,311.48c-.14-.03,.04-1.12,.41-2.43,.37-1.31,.78-2.34,.91-2.29,.14,.05-.05,1.13-.41,2.43-.36,1.29-.77,2.32-.91,2.29Z" style="fill:#e0e0e0;"></path><path d="M85.64,321.2c-.14,0-.19-1.1-.1-2.46,.09-1.36,.27-2.45,.42-2.43,.14,.02,.19,1.12,.1,2.46-.09,1.34-.27,2.43-.42,2.43Z" style="fill:#e0e0e0;"></path><path d="M86.65,330.93c-.14,.03-.5-1.02-.72-2.36-.22-1.35-.21-2.46-.07-2.47,.15-.01,.36,1.06,.58,2.39,.21,1.33,.35,2.42,.21,2.45Z" style="fill:#e0e0e0;"></path><path d="M89.93,340.15c-.13,.06-.73-.87-1.26-2.12-.53-1.25-.79-2.34-.65-2.38,.14-.05,.6,.94,1.13,2.18,.52,1.24,.91,2.26,.78,2.33Z" style="fill:#e0e0e0;"></path><path d="M95.22,348.38c-.11,.09-.85-.73-1.64-1.83-.8-1.11-1.34-2.06-1.22-2.14,.12-.08,.86,.74,1.65,1.84,.79,1.09,1.33,2.05,1.22,2.14Z" style="fill:#e0e0e0;"></path><path d="M102.1,355.34c-.09,.11-.98-.54-1.98-1.46-1.01-.92-1.74-1.75-1.63-1.85,.1-.1,.99,.55,1.98,1.46,.99,.91,1.72,1.73,1.63,1.85Z" style="fill:#e0e0e0;"></path><path d="M110.21,360.84c-.07,.13-1.07-.35-2.23-1.05-1.16-.71-2.04-1.38-1.96-1.5,.08-.12,1.08,.35,2.23,1.05,1.15,.7,2.02,1.37,1.96,1.5Z" style="fill:#e0e0e0;"></path><path d="M119.2,364.71c-.04,.14-1.11-.14-2.39-.62-1.27-.48-2.26-.97-2.2-1.11,.06-.13,1.13,.14,2.39,.62,1.26,.47,2.25,.97,2.2,1.11Z" style="fill:#e0e0e0;"></path><path d="M128.77,366.79c-.02,.14-1.12,.08-2.46-.14-1.34-.22-2.41-.52-2.37-.66,.03-.14,1.13-.08,2.46,.14,1.33,.22,2.39,.51,2.37,.66Z" style="fill:#e0e0e0;"></path><path d="M138.56,366.88c.02,.14-1.07,.31-2.43,.37-1.36,.06-2.46,0-2.46-.15,0-.14,1.09-.31,2.44-.37,1.34-.06,2.44,0,2.46,.15Z" style="fill:#e0e0e0;"></path><path d="M148.14,364.9c.04,.14-.99,.53-2.31,.87-1.32,.34-2.41,.51-2.44,.37-.03-.14,1-.53,2.31-.87,1.3-.34,2.39-.5,2.44-.37Z" style="fill:#e0e0e0;"></path><path d="M157.15,361.06c.07,.13-.87,.71-2.09,1.3-1.23,.59-2.26,.97-2.32,.83s.88-.72,2.09-1.3c1.21-.59,2.25-.96,2.32-.83Z" style="fill:#e0e0e0;"></path><path d="M165.3,355.63c.09,.11-.73,.85-1.82,1.66-1.1,.8-2.05,1.36-2.13,1.24-.08-.12,.74-.86,1.82-1.66,1.09-.8,2.04-1.35,2.13-1.24Z" style="fill:#e0e0e0;"></path><path d="M172.38,348.87c.11,.09-.57,.97-1.51,1.95-.94,.98-1.79,1.69-1.88,1.59-.1-.1,.58-.98,1.51-1.95,.93-.97,1.78-1.68,1.88-1.59Z" style="fill:#e0e0e0;"></path><path d="M178.19,340.98c.12,.07-.39,1.05-1.15,2.18-.76,1.13-1.47,1.98-1.58,1.89-.11-.09,.4-1.06,1.15-2.18,.75-1.12,1.46-1.96,1.58-1.89Z" style="fill:#e0e0e0;"></path><path d="M182.53,332.2c.13,.05-.2,1.1-.75,2.35-.55,1.25-1.1,2.2-1.22,2.14-.13-.06,.21-1.12,.75-2.35,.54-1.23,1.09-2.19,1.22-2.14Z" style="fill:#e0e0e0;"></path><path d="M184.69,325.13c.14,.03,.12,.6-.06,1.28-.17,.67-.42,1.19-.56,1.15-.14-.04-.11-.61,.06-1.28,.17-.66,.42-1.18,.56-1.15Z" style="fill:#e0e0e0;"></path></g><g><rect x="242.92" y="41.01" width="52.8" height="38.52" rx="3.25" ry="3.25" transform="translate(-6.41 71.92) rotate(-15.03)" style="fill:#f5f5f5;"></rect><g><path d="M288.7,39.61s-.1,.19-.33,.52l-1.01,1.42c-.94,1.28-2.23,3.03-3.81,5.18-1.63,2.19-3.56,4.78-5.7,7.64-1.08,1.44-2.21,2.94-3.38,4.5-.59,.78-1.19,1.57-1.79,2.38-.64,.85-1.57,1.5-2.63,1.79-1.05,.3-2.18,.24-3.17-.15-.93-.4-1.85-.79-2.75-1.17-1.79-.77-3.52-1.51-5.17-2.22-3.28-1.42-6.24-2.7-8.75-3.79-2.44-1.08-4.43-1.96-5.88-2.6-.65-.3-1.17-.54-1.59-.73-.36-.17-.55-.27-.54-.29,0-.02,.21,.05,.58,.19,.42,.17,.96,.38,1.63,.64,1.47,.6,3.48,1.43,5.94,2.45,2.52,1.06,5.5,2.31,8.79,3.69,1.65,.7,3.39,1.43,5.18,2.19,.9,.38,1.81,.76,2.74,1.16,.89,.35,1.9,.4,2.84,.13,.94-.27,1.78-.84,2.35-1.6,.61-.8,1.21-1.59,1.8-2.37,1.18-1.55,2.32-3.05,3.4-4.48,2.17-2.84,4.13-5.4,5.79-7.57,1.63-2.1,2.97-3.83,3.94-5.08,.45-.56,.81-1.01,1.09-1.37,.25-.31,.39-.47,.41-.45Z" style="fill:#e0e0e0;"></path><path d="M262.61,60.8c.12,.07-2.38,4.4-5.58,9.66-3.21,5.26-5.91,9.46-6.03,9.39-.12-.07,2.38-4.4,5.58-9.66,3.21-5.26,5.91-9.46,6.03-9.39Z" style="fill:#e0e0e0;"></path><path d="M275.23,57.41c.07-.12,4.4,2.38,9.66,5.58,5.26,3.21,9.46,5.91,9.39,6.03-.07,.12-4.4-2.38-9.66-5.58-5.26-3.21-9.46-5.91-9.39-6.03Z" style="fill:#e0e0e0;"></path></g></g><g><path d="M447.73,161.04h0c-13.66,0-24.73-11.07-24.73-24.73h0c0-13.66,11.07-24.73,24.73-24.73h0c13.66,0,24.73,11.07,24.73,24.73h0c0,13.66-11.07,24.73-24.73,24.73Z" style="fill:#ebebeb;"></path><path d="M443.96,151.26h6.02v-15.07h4.2l.45-5.05h-4.65v-2.87c0-1.19,.24-1.66,1.39-1.66h3.26v-5.24h-4.17c-4.48,0-6.5,1.97-6.5,5.75v4.02h-3.13v5.11h3.13v15.01Z" style="fill:#fff;"></path></g><g><path d="M139.22,426.76c.68,2.97-1.17,5.92-4.14,6.6-2.97,.68-5.92-1.17-6.6-4.14-.68-2.97,1.17-5.92,4.14-6.6,2.97-.68,5.92,1.17,6.6,4.14Z" style="fill:#ebebeb;"></path><g><path d="M113.22,432.82l41.3-9.49-3.6-2.62c-2.23-1.62-3.8-4-4.41-6.68l-2.57-11.2c-1.91-8.31-10.19-13.5-18.51-11.59h0c-8.31,1.91-13.5,10.19-11.59,18.51l2.47,10.77c.57,2.5,.29,5.11-.8,7.43l-2.29,4.88Z" style="fill:#ebebeb;"></path><rect x="122.79" y="386.37" width="4.16" height="8.83" rx="1.81" ry="1.81" transform="translate(-84.3 37.86) rotate(-12.93)" style="fill:#ebebeb;"></rect></g><path d="M154.55,423.42c.02,.09-9.15,2.26-20.47,4.86-11.33,2.6-20.53,4.64-20.55,4.55-.02-.09,9.15-2.26,20.48-4.86,11.33-2.6,20.53-4.63,20.54-4.55Z" style="fill:#e0e0e0;"></path><path d="M128.53,429.39s2.66,1.34,5.62,.66c3.52-.81,5.11-3.13,5.11-3.13l-10.74,2.46Z" style="fill:#e0e0e0;"></path><path d="M141.43,401.35c-.13-.47-.28-.96-.62-1.32-.34-.36-.92-.53-1.33-.26h0c-.5,.23-.77,.77-.65,1.31,.4,1.77,1.28,5.69,1.72,8.04,.36,1.93,.55,4.04-.34,5.79-.69,1.35-2,2.3-3.4,2.89-1.4,.59-2.91,.86-4.4,1.18-1.88,.4-3.76,.9-5.48,1.75-.46,.23-.93,.5-1.21,.93-.28,.43-.29,1.07,.1,1.41,.36,.31,.89,.26,1.35,.2,4.8-.66,9.63-1.41,14.19-3.05,.95-.34,1.94-.76,2.51-1.59,.65-.94,.6-2.18,.49-3.32-.47-4.74-1.62-9.38-2.93-13.96Z" style="fill:#e0e0e0;"></path><g style="opacity:.2;"><path d="M121.52,394.83s.02,0,.03-.01c.02,0,.03-.02,.05-.03l-.08,.04Z" style="fill:#fff;"></path></g><path d="M134.8,391.93c-.02,.06-.93-.33-2.48-.64-.77-.16-1.71-.27-2.75-.3-1.04-.01-2.19,.05-3.37,.26-1.18,.22-2.28,.55-3.25,.93-.96,.39-1.81,.82-2.47,1.24-1.35,.83-2.07,1.51-2.11,1.46-.01-.02,.16-.19,.49-.49,.16-.16,.37-.34,.62-.52,.25-.19,.53-.42,.88-.63,.66-.45,1.51-.9,2.48-1.32,.98-.4,2.1-.75,3.31-.97,1.21-.21,2.38-.27,3.44-.24,1.06,.06,2.01,.18,2.79,.38,.39,.08,.74,.2,1.04,.29,.31,.09,.56,.19,.77,.28,.41,.17,.64,.28,.63,.3Z" style="fill:#e0e0e0;"></path><path d="M116.47,427.1c-.09-.04,.44-1.33,.63-3.02,.21-1.69,0-3.07,.09-3.08,.07-.02,.44,1.38,.22,3.12-.2,1.75-.88,3.02-.95,2.98Z" style="fill:#fff;"></path><path d="M135.46,432.16s-.28,.24-.83,.4c-.55,.16-1.37,.24-2.23,0-.86-.23-1.53-.72-1.92-1.13-.4-.42-.55-.74-.51-.76,.04-.03,.25,.25,.67,.6,.41,.35,1.05,.77,1.85,.99,.8,.22,1.56,.18,2.1,.09,.54-.09,.86-.22,.88-.18Z" style="fill:#fff;"></path><path d="M123.38,387.14c.08,.05-.34,.65-.38,1.5-.07,.85,.26,1.49,.18,1.53-.06,.06-.57-.59-.5-1.55,.06-.96,.65-1.54,.7-1.48Z" style="fill:#fff;"></path></g><path d="M38.77,158.6c1.14-.69,2.35-1.21,3.6-1.57l.74-3.57,6.03-.11,.87,3.54c1.26,.31,2.49,.79,3.66,1.44l3.05-2,4.34,4.19-1.89,3.11c.69,1.14,1.21,2.35,1.57,3.61l3.57,.74,.11,6.03-3.54,.87c-.31,1.26-.79,2.49-1.44,3.66l2,3.05-4.19,4.34-3.12-1.89c-1.14,.69-2.35,1.21-3.61,1.57l-.74,3.57-6.03,.11-.87-3.54c-1.26-.31-2.49-.79-3.66-1.44l-3.05,2-4.34-4.19,1.89-3.11c-.69-1.14-1.21-2.35-1.57-3.61l-3.57-.74-.11-6.03,3.54-.87c.31-1.26,.79-2.49,1.44-3.66l-2-3.05,4.19-4.34,3.12,1.89h0Zm3.21,8.03c-2.48,2.57-2.41,6.67,.16,9.15,2.57,2.48,6.67,2.41,9.15-.16,2.48-2.57,2.41-6.67-.16-9.15-2.57-2.48-6.66-2.41-9.15,.16Z" style="fill:#ebebeb;"></path><path d="M446.37,303.06c1.11-.67,2.28-1.18,3.5-1.52l.72-3.46,5.85-.1,.84,3.44c1.23,.3,2.42,.77,3.55,1.4l2.96-1.94,4.21,4.07-1.83,3.02c.67,1.11,1.18,2.29,1.52,3.5l3.46,.72,.1,5.85-3.44,.84c-.3,1.23-.77,2.42-1.4,3.55l1.94,2.96-4.07,4.21-3.02-1.83c-1.11,.67-2.29,1.18-3.5,1.52l-.72,3.46-5.85,.1-.84-3.44c-1.23-.3-2.42-.77-3.55-1.4l-2.96,1.94-4.21-4.07,1.83-3.02c-.67-1.11-1.18-2.28-1.52-3.5l-3.46-.72-.1-5.85,3.44-.84c.3-1.23,.77-2.42,1.4-3.55l-1.94-2.96,4.07-4.21,3.02,1.83h0Zm3.12,7.8c-2.41,2.5-2.34,6.47,.16,8.88,2.5,2.41,6.47,2.34,8.88-.16,2.41-2.5,2.34-6.47-.16-8.88-2.5-2.41-6.47-2.34-8.88,.16Z" style="fill:#ebebeb;"></path></g><g id="freepik--Table--inject-142"><path d="M470.49,452.79c0,.14-98.73,.26-220.48,.26s-220.5-.12-220.5-.26,98.7-.26,220.5-.26,220.48,.12,220.48,.26Z" style="fill:#263238;"></path></g><g id="freepik--Speech_Bubble--inject-142"><g><path d="M304.43,142.58l-167.69,15.12c-22.35,2.02-38.72,23.02-36.56,46.92l8.84,97.99c2.15,23.9,22.02,41.63,44.37,39.62l65.09-5.87c1.97-.18,3.91,.69,5.18,2.32l18.41,23.43c2.72,3.46,7.81,3.01,9.87-.89l13.92-26.35c.97-1.83,2.72-3.03,4.69-3.21l50.53-4.56c22.35-2.02,38.72-23.02,36.56-46.92l-8.84-97.99c-2.15-23.9-22.02-41.63-44.37-39.62Z" style="fill:#fff;"></path><path d="M304.43,142.58s.72-.04,2.14-.1c.35-.01,.75-.03,1.19-.05,.44-.02,.92-.05,1.44,0,1.05,.08,2.26,.14,3.64,.27,.68,.12,1.4,.25,2.16,.38,.76,.15,1.57,.23,2.38,.5,.82,.24,1.68,.48,2.57,.74,.9,.24,1.78,.68,2.72,1.03,3.72,1.54,7.84,3.88,11.75,7.4,3.91,3.5,7.6,8.19,10.3,13.99,.33,.73,.66,1.47,.99,2.21,.35,.74,.55,1.55,.84,2.33,.26,.79,.56,1.58,.79,2.4,.2,.83,.39,1.66,.59,2.51,.8,3.38,1.07,6.99,1.41,10.69,1.35,14.83,2.88,31.72,4.58,50.38,.85,9.33,1.73,19.11,2.66,29.3,.23,2.55,.46,5.12,.7,7.72,.12,1.3,.24,2.6,.36,3.92l.18,1.97,.09,2c.26,5.33-.38,10.81-2.06,16.09-1.67,5.27-4.37,10.34-8.03,14.73-3.66,4.4-8.29,8.12-13.62,10.67-2.65,1.31-5.5,2.22-8.41,2.9-.72,.23-1.48,.26-2.21,.39l-2.23,.32c-1.49,.16-2.99,.28-4.49,.42-6.01,.54-12.11,1.1-18.28,1.65-6.17,.56-12.42,1.12-18.74,1.69-3.16,.29-6.33,.58-9.52,.87-1.53,.19-2.94,1.09-3.83,2.35-.44,.62-.77,1.38-1.16,2.08l-1.13,2.15c-3.03,5.74-6.09,11.53-9.18,17.38-.77,1.46-1.55,2.93-2.32,4.4-.39,.72-.74,1.51-1.32,2.17-.55,.66-1.24,1.22-2.03,1.61-1.57,.77-3.48,.79-5.08,.08-.81-.35-1.51-.9-2.1-1.55-.59-.65-1.06-1.32-1.59-1.98-4.17-5.3-8.37-10.65-12.6-16.04-1.06-1.35-2.12-2.7-3.18-4.05-.53-.67-1.06-1.37-1.6-2.01-.55-.62-1.23-1.12-1.98-1.46-.76-.34-1.58-.5-2.41-.48-.83,.05-1.72,.15-2.57,.22-1.73,.16-3.46,.31-5.19,.47-13.87,1.25-27.94,2.52-42.18,3.81-3.56,.32-7.11,.64-10.65,.96-3.53,.31-7.09,.73-10.64,.47-.89-.07-1.78-.11-2.65-.21l-2.62-.47c-.43-.08-.87-.14-1.3-.25l-1.27-.37-2.54-.75-2.45-1-1.22-.5-1.17-.62-2.33-1.23-2.2-1.45c-5.86-3.88-10.47-9.36-13.76-15.4-.21-.38-.44-.74-.62-1.13l-.53-1.18-1.05-2.36c-.31-.8-.56-1.62-.84-2.43-.25-.82-.6-1.61-.77-2.45-.88-3.3-1.37-6.7-1.65-10.05-2.42-26.87-4.75-52.78-6.97-77.47-.55-6.17-1.1-12.27-1.64-18.28-.56-6.04,0-12.12,1.74-17.76,3.4-11.31,11.33-20.82,21.28-25.73l1.86-.92,1.93-.72c.64-.24,1.28-.49,1.93-.71l1.98-.51c.66-.16,1.32-.35,1.98-.5l2.01-.29,2-.29,1.99-.18c5.3-.47,10.49-.94,15.59-1.4,10.19-.91,19.97-1.79,29.31-2.63,37.34-3.33,67.55-6.03,88.44-7.89,10.44-.92,18.54-1.63,24.05-2.12,2.74-.24,4.84-.42,6.25-.54,1.41-.12,2.13-.17,2.13-.17,0,0-.72,.08-2.13,.22-1.41,.13-3.51,.33-6.25,.59-5.5,.51-13.6,1.25-24.04,2.22-20.88,1.9-51.09,4.66-88.42,8.06-9.33,.85-19.11,1.73-29.3,2.66-5.09,.46-10.29,.93-15.59,1.41l-1.99,.18-1.98,.29-1.99,.29c-.65,.15-1.3,.33-1.95,.49l-1.96,.5c-.64,.21-1.27,.47-1.91,.7l-1.91,.72-1.84,.91c-9.84,4.86-17.68,14.27-21.04,25.48-1.72,5.59-2.27,11.6-1.71,17.59,.54,6.01,1.1,12.11,1.65,18.28,2.23,24.69,4.57,50.6,7,77.46,.28,3.36,.77,6.69,1.64,9.97,.16,.83,.51,1.61,.76,2.42,.28,.8,.52,1.61,.83,2.4l1.04,2.33,.52,1.17c.18,.38,.41,.75,.62,1.12,3.26,5.97,7.81,11.38,13.6,15.21l2.17,1.43,2.3,1.22,1.15,.61,1.21,.49,2.42,.98,2.51,.74,1.26,.37c.42,.1,.86,.16,1.29,.25l2.58,.47c.87,.11,1.75,.14,2.62,.21,3.5,.27,7.02-.15,10.56-.46,3.54-.32,7.09-.64,10.65-.96,14.24-1.28,28.31-2.55,42.18-3.8,1.73-.16,3.46-.31,5.19-.47,.87-.07,1.71-.17,2.6-.22,.91-.03,1.81,.16,2.64,.52,.82,.37,1.56,.92,2.16,1.59,.57,.69,1.08,1.36,1.62,2.04,1.06,1.35,2.12,2.7,3.18,4.05,4.24,5.39,8.44,10.74,12.6,16.04,.52,.65,1.03,1.36,1.57,1.95,.54,.59,1.19,1.11,1.93,1.42,1.47,.66,3.21,.64,4.65-.07,.72-.36,1.35-.87,1.86-1.48,.52-.6,.86-1.35,1.26-2.09,.78-1.47,1.55-2.94,2.32-4.4,3.09-5.85,6.16-11.65,9.19-17.38l1.14-2.15c.39-.71,.71-1.44,1.2-2.14,.97-1.37,2.5-2.34,4.17-2.55,3.2-.29,6.38-.58,9.54-.87,6.32-.57,12.57-1.13,18.74-1.69,6.17-.55,12.26-1.1,18.28-1.64,1.5-.14,3-.26,4.49-.42l2.21-.32c.73-.13,1.48-.16,2.19-.38,2.88-.67,5.69-1.57,8.31-2.86,5.27-2.52,9.85-6.2,13.47-10.54,3.63-4.35,6.3-9.36,7.96-14.58,1.67-5.23,2.31-10.66,2.05-15.94l-.08-1.98-.18-1.97c-.12-1.31-.23-2.62-.35-3.92-.23-2.6-.46-5.17-.69-7.72-.91-10.19-1.79-19.97-2.63-29.3-1.67-18.67-3.18-35.56-4.51-50.39-.33-3.71-.6-7.3-1.39-10.66-.2-.84-.39-1.67-.59-2.49-.24-.81-.53-1.6-.79-2.39-.28-.78-.48-1.58-.83-2.32-.33-.74-.66-1.48-.98-2.2-2.68-5.77-6.34-10.44-10.21-13.94-3.88-3.52-7.97-5.86-11.68-7.41-.94-.36-1.81-.8-2.71-1.04-.89-.26-1.75-.51-2.56-.75-.81-.28-1.62-.36-2.37-.51-.76-.14-1.48-.27-2.15-.39-1.37-.14-2.58-.2-3.63-.29-.52-.06-1-.04-1.44-.02-.44,.01-.83,.03-1.19,.04-1.41,.04-2.14,.05-2.14,.05Z" style="fill:#263238;"></path></g></g><g id="freepik--Target--inject-142"><g><circle cx="357.84" cy="101.57" r="34.26" transform="translate(194.85 435.93) rotate(-79.86)" style="fill:#FF725E;"></circle><g style="opacity:.3;"><circle cx="357.84" cy="101.57" r="34.26" transform="translate(194.85 435.93) rotate(-79.86)"></circle></g><circle cx="357.93" cy="97.78" r="34.26" transform="translate(2.5 204.29) rotate(-31.96)" style="fill:#FF725E;"></circle><circle cx="357.93" cy="97.78" r="22.95" transform="translate(221.52 442.85) rotate(-83.71)" style="fill:#fff;"></circle><path d="M369.16,98.06c-.15,6.2-5.31,11.1-11.51,10.95-6.2-.15-11.1-5.31-10.95-11.51,.15-6.2,5.31-11.1,11.51-10.95,6.2,.15,11.1,5.31,10.95,11.51Z" style="fill:#FF725E;"></path><polygon points="382.43 73.31 381.68 65.98 389.31 58.2 389.65 66.1 382.43 73.31" style="fill:#455a64;"></polygon><polygon points="398.54 67.89 391.01 67.09 383.26 74.18 390.81 75.17 398.54 67.89" style="fill:#455a64;"></polygon><g style="opacity:.3;"><path d="M359.43,97.66l26.69-19.34c-.86-1.35-1.95-2.71-3.18-4.08l-23.46,21.64-.04,1.78Z"></path></g><path d="M389.99,65.01c-3.64,3.47-7.29,6.93-10.93,10.4-5.78,5.5-11.56,11-17.34,16.5-1.33,1.26-2.66,2.53-3.99,3.79-1.26,1.2,.61,3.15,1.88,1.95,3.64-3.47,7.29-6.93,10.93-10.4,5.78-5.5,11.56-11,17.34-16.5,1.33-1.26,2.66-2.53,3.99-3.79,1.26-1.2-.61-3.15-1.88-1.95h0Z" style="fill:#263238;"></path></g></g><g id="freepik--Megaphone--inject-142"><g style="opacity:.2;"><path d="M325.59,225.38c-.43-9.86-2.22-19.71-4.41-29.52-.51-2.17-1.02-4.34-1.53-6.5-.53-2.15-1.14-4.27-1.71-6.4-1.1-4.26-2.36-8.44-3.64-12.57-2.46-8.31-6.22-18.36-9.12-26.19-5.09-1.82-11.59-2.09-19.29-1.04l-56.25,8.12c-11.55,11.32-22.19,20.07-30.98,26.54-.12-.78-.24-1.55-.35-2.33l-48.26,21.98c-9.07,5.66-13.74,17.42-8.3,30.98l5.34,14.78,3.7,7.6c4.3,8.82,12.89,13.27,20.92,11.49l-.5,.2c.2-.07,.4-.15,.6-.22,1.41-.32,2.8-.82,4.15-1.54,.98-.37,1.95-.73,2.91-1.1l39.66,51.02c2.9,3.73,8.27,3.61,11.03-.23l12.77-17.79c2.4-3.35,1.78-8.14-1.38-10.67-8.28-6.6-23.04-19.27-28.43-29.53-.2-.43-1.76-3.93-1.93-5.57,2.52-1.04,5.11-2.1,7.77-3.19,2.93-.61,5.93-1.19,9.01-1.75,6.36-1.12,13.05-2.12,20.03-2.58,6.97-.48,14.23,0,21.68,.95,14.95,1.85,30.52,5.74,46.97,9.5l.8,.14,.92-.04c.62-.01,1.15-.37,1.71-.57,.47-.37,.97-.72,1.41-1.13l1.14-1.41c1.24-2.07,2.17-4.37,2.6-6.77,.99-4.77,1.23-9.73,.95-14.65Z"></path></g><g><g><g><path d="M161.26,191.55s20.19-7.68,51.54-34.21c22.92-19.4,40.36-41.84,48.08-52.5,3.71-5.12,10.65-6.34,15.62-2.53,7.67,5.88,18.74,21.2,32.34,61.11,23.98,70.35,11.11,84.89,5.26,84.2-5.85-.7-44.75-11.25-69.84-10.7-25.09,.56-62.71,10.86-62.71,10.86l-20.29-56.22Z" style="fill:#e0e0e0;"></path><path d="M161.26,191.55s.13,.33,.37,.97c.24,.65,.59,1.6,1.05,2.85,.92,2.52,2.27,6.22,4.03,11.03,3.5,9.62,8.59,23.65,15.01,41.31l-.2-.1c10.99-2.92,23.53-5.84,37.47-8.2,6.97-1.15,14.3-2.17,21.96-2.57,7.67-.42,15.64,.15,23.78,1.15,8.14,1.02,16.47,2.5,24.97,4.21,4.25,.85,8.55,1.78,12.88,2.74,2.17,.48,4.35,.96,6.54,1.44,1.1,.24,2.2,.47,3.3,.69,.55,.11,1.1,.19,1.65,.28,.53,.04,1.06,.01,1.57-.17,1.03-.32,1.91-1.05,2.64-1.88,.72-.85,1.29-1.83,1.78-2.84,.94-2.06,1.5-4.29,1.88-6.56,.74-4.55,.71-9.24,.43-13.93-.64-9.39-2.49-18.83-4.79-28.25-2.07-8.46-4.55-16.71-7.18-24.78-2.64-8.07-5.44-15.95-8.47-23.58-3.04-7.63-6.27-15.03-9.99-22-1.85-3.48-3.85-6.85-6-10.05-2.16-3.19-4.53-6.21-7.25-8.79-.67-.66-1.39-1.26-2.11-1.84-.35-.31-.75-.53-1.12-.8-.4-.22-.79-.46-1.21-.64-1.66-.73-3.5-1.08-5.3-.88-1.79,.18-3.53,.79-4.99,1.8l-.55,.38-.51,.43c-.35,.27-.65,.6-.96,.92-.59,.65-1.11,1.37-1.64,2.1-4.23,5.78-8.54,11.24-12.86,16.39-8.63,10.31-17.29,19.39-25.65,27.18-16.86,15.45-32.08,26.14-42.97,32.81-5.46,3.32-9.86,5.64-12.89,7.1-1.51,.74-2.69,1.25-3.48,1.59-.8,.34-1.21,.48-1.21,.48,.15-.07,.47-.21,1.19-.53,.79-.35,1.95-.88,3.46-1.64,3.01-1.49,7.39-3.84,12.83-7.18,5.43-3.35,11.92-7.72,19.17-13.17,1.8-1.37,3.69-2.77,5.57-4.3,1.9-1.5,3.86-3.05,5.83-4.71,3.99-3.25,8.07-6.84,12.25-10.72,8.34-7.8,16.96-16.88,25.57-27.19,4.31-5.15,8.6-10.61,12.82-16.38,.52-.72,1.05-1.46,1.67-2.14,.32-.33,.63-.67,.99-.96l.53-.45,.57-.39c1.53-1.05,3.34-1.69,5.21-1.88,1.87-.21,3.8,.15,5.54,.91,.44,.19,.85,.44,1.26,.67,.39,.28,.81,.52,1.16,.83,.74,.59,1.47,1.2,2.15,1.87,2.76,2.62,5.15,5.66,7.32,8.86,2.17,3.22,4.17,6.59,6.03,10.09,3.73,6.99,6.97,14.41,10.02,22.05,3.04,7.65,5.85,15.53,8.49,23.61,2.63,8.08,5.12,16.34,7.19,24.82,2.3,9.44,4.16,18.9,4.8,28.34,.29,4.71,.31,9.44-.44,14.04-.39,2.3-.96,4.57-1.93,6.69-.51,1.04-1.1,2.06-1.86,2.95-.77,.88-1.71,1.66-2.86,2.03-.56,.2-1.19,.25-1.78,.19-.56-.1-1.13-.18-1.69-.29-1.11-.22-2.22-.45-3.31-.69-2.19-.48-4.37-.97-6.54-1.44-4.34-.96-8.62-1.89-12.87-2.75-8.49-1.71-16.81-3.2-24.93-4.23-8.12-1.01-16.06-1.59-23.7-1.18-7.64,.39-14.95,1.4-21.92,2.53-13.92,2.33-26.47,5.23-37.45,8.12l-.15,.04-.05-.14c-6.36-17.73-11.41-31.81-14.87-41.46-1.72-4.81-3.04-8.51-3.94-11.03-.44-1.24-.78-2.19-1-2.83-.22-.64-.33-.95-.33-.95Z" style="fill:#263238;"></path></g><g style="opacity:.3;"><path d="M304.6,167.57c12.52,37.53,16.26,70.29,8.34,73.17-7.92,2.89-24.49-25.2-37.02-62.73-12.52-37.53-16.26-70.29-8.34-73.17,7.92-2.89,24.49,25.2,37.02,62.73Z"></path></g><path d="M269.32,155.92s18.84-9.94,26.57,16.48c7.73,26.42-11.44,28.77-11.44,28.77-6.68-13.34-11.77-28.37-15.13-45.25Z" style="fill:#fff;"></path></g><path d="M142.23,220.45l7.75,27.04c1,3.48,4.32,5.76,7.92,5.45h0c2.47-.21,4.88,.79,6.46,2.7l44.45,53.42c3.1,3.73,8.86,3.61,11.81-.23l13.67-17.79c2.57-3.35,1.91-8.14-1.48-10.67-10.04-7.49-29.01-22.77-32.17-33.5-2.01-6.83-1.75-10.18-.91-11.81,1.11-2.14,1.4-4.61,.45-6.82l-6.86-16.03c-1.28-3-4.35-4.84-7.6-4.56l-36.88,3.18c-4.74,.41-7.93,5.04-6.62,9.62Z" style="fill:#FF725E;"></path><path d="M164.5,255.8l8.25,9.92,29.66-14.84s-2.29-4.66-2.1-6.06l-35.81,10.98Z" style="opacity:.3;"></path><path d="M126.63,226.84l5.72,14.78,3.96,7.6c5.43,10.42,17.29,14.77,26.97,9.91l50.99-19.2c-15.25-19.02-23.47-41.43-27.11-66.05l-51.65,21.98c-9.71,5.66-14.71,17.42-8.88,30.98Z" style="fill:#FF725E;"></path><path d="M182.51,197.28c.15,.36-9.24,4.8-20.97,9.92-11.74,5.12-21.38,8.97-21.53,8.61-.15-.36,9.23-4.8,20.97-9.92,11.73-5.12,21.37-8.97,21.53-8.61Z" style="fill:#263238;"></path><path d="M185.7,204.95c.15,.36-9.24,4.8-20.97,9.92-11.74,5.12-21.38,8.97-21.53,8.61-.15-.36,9.23-4.8,20.97-9.92,11.73-5.12,21.37-8.97,21.53-8.61Z" style="fill:#263238;"></path><path d="M188.89,212.62c.15,.36-9.24,4.8-20.97,9.92-11.74,5.12-21.37,8.97-21.53,8.61-.15-.36,9.23-4.8,20.97-9.92,11.73-5.12,21.37-8.97,21.53-8.61Z" style="fill:#263238;"></path><path d="M192.08,220.29c.15,.36-9.24,4.8-20.97,9.92-11.74,5.12-21.37,8.97-21.53,8.61-.15-.36,9.24-4.8,20.97-9.92,11.73-5.12,21.37-8.97,21.53-8.61Z" style="fill:#263238;"></path><path d="M214.28,239.92s-.18,.11-.55,.27c-.42,.17-.96,.39-1.61,.67-1.47,.58-3.49,1.39-5.97,2.37-5.04,1.98-12.01,4.72-19.74,7.67-7.73,2.96-14.77,5.52-19.89,7.29-2.56,.89-4.64,1.58-6.09,2.04-.68,.21-1.23,.39-1.67,.52-.38,.11-.59,.17-.59,.15,0-.02,.19-.1,.56-.25,.43-.16,.97-.36,1.63-.61,1.49-.54,3.53-1.29,6.03-2.2,5.09-1.85,12.11-4.47,19.83-7.43,7.7-2.93,14.67-5.58,19.79-7.53,2.5-.92,4.54-1.67,6.03-2.21,.67-.23,1.22-.43,1.65-.57,.38-.13,.58-.18,.59-.17Z" style="fill:#263238;"></path><path d="M303.79,236.11s-.07-.08-.19-.25c-.13-.19-.29-.44-.5-.76-.45-.7-1.08-1.68-1.88-2.93-1.6-2.57-3.87-6.31-6.52-11.03-5.28-9.43-11.99-22.85-17.6-38.39-2.82-7.76-5.1-15.31-6.87-22.24-.47-1.73-.86-3.43-1.24-5.08-.38-1.65-.74-3.25-1.1-4.8-.69-3.1-1.35-5.99-1.91-8.64-1.13-5.29-1.83-9.62-2.17-12.63-.18-1.5-.28-2.67-.34-3.47-.02-.37-.04-.67-.06-.9,0-.2-.01-.31,0-.31,0,0,.03,.1,.05,.3l.11,.9c.09,.79,.22,1.96,.43,3.45,.4,2.99,1.16,7.3,2.33,12.57,.6,2.64,1.26,5.52,1.97,8.62,.36,1.55,.74,3.15,1.12,4.79,.39,1.65,.79,3.34,1.26,5.06,1.8,6.91,4.08,14.43,6.89,22.18,5.6,15.51,12.24,28.93,17.43,38.39,2.6,4.73,4.82,8.5,6.37,11.1,.76,1.27,1.37,2.27,1.79,2.98,.19,.32,.34,.58,.46,.78,.1,.18,.15,.27,.14,.28Z" style="fill:#263238;"></path></g></g><g id="freepik--Social_media_icon--inject-142"><g><path d="M197.37,118.75h0c-14.35,0-25.98-11.63-25.98-25.98h0c0-14.35,11.63-25.98,25.98-25.98h0c14.35,0,25.98,11.63,25.98,25.98h0c0,14.35-11.63,25.98-25.98,25.98Z" style="fill:#455a64;"></path><g><path d="M197.37,81.09c3.8,0,4.25,.01,5.76,.08,1.39,.06,2.14,.3,2.65,.49,.66,.26,1.14,.57,1.64,1.07,.5,.5,.81,.97,1.07,1.64,.2,.5,.43,1.26,.49,2.65,.07,1.5,.08,1.95,.08,5.76s-.01,4.25-.08,5.76c-.06,1.39-.3,2.14-.49,2.65-.26,.67-.57,1.14-1.07,1.64-.5,.5-.97,.81-1.64,1.07-.5,.2-1.26,.43-2.65,.49-1.5,.07-1.95,.08-5.76,.08s-4.25-.01-5.76-.08c-1.39-.06-2.14-.3-2.65-.49-.66-.26-1.14-.57-1.64-1.07-.5-.5-.81-.97-1.07-1.64-.19-.5-.43-1.26-.49-2.65-.07-1.5-.08-1.95-.08-5.76s.01-4.25,.08-5.76c.06-1.39,.3-2.14,.49-2.65,.26-.66,.57-1.14,1.07-1.64,.5-.5,.97-.81,1.64-1.07,.5-.2,1.26-.43,2.65-.49,1.5-.07,1.95-.08,5.76-.08m0-2.57c-3.87,0-4.35,.02-5.87,.09-1.52,.07-2.55,.31-3.46,.66-.94,.36-1.73,.85-2.52,1.64-.79,.79-1.28,1.59-1.64,2.52-.35,.91-.59,1.94-.66,3.46-.07,1.52-.09,2-.09,5.87s.02,4.35,.09,5.87c.07,1.52,.31,2.55,.66,3.46,.36,.94,.85,1.73,1.64,2.52,.79,.79,1.59,1.28,2.52,1.64,.91,.35,1.94,.59,3.46,.66,1.52,.07,2,.09,5.87,.09s4.35-.02,5.87-.09c1.52-.07,2.55-.31,3.46-.66,.94-.36,1.73-.85,2.52-1.64,.79-.79,1.28-1.59,1.64-2.52,.35-.91,.59-1.94,.66-3.46,.07-1.52,.09-2,.09-5.87s-.02-4.35-.09-5.87c-.07-1.52-.31-2.55-.66-3.46-.36-.94-.85-1.73-1.64-2.52-.79-.79-1.59-1.28-2.52-1.64-.91-.35-1.94-.59-3.46-.66-1.52-.07-2-.09-5.87-.09" style="fill:#fff;"></path><path d="M197.37,85.45c-4.04,0-7.32,3.28-7.32,7.32s3.28,7.32,7.32,7.32,7.32-3.28,7.32-7.32-3.28-7.32-7.32-7.32m0,12.06c-2.62,0-4.75-2.13-4.75-4.75s2.13-4.75,4.75-4.75,4.75,2.13,4.75,4.75-2.13,4.75-4.75,4.75" style="fill:#fff;"></path><path d="M206.69,85.16c0,.94-.77,1.71-1.71,1.71s-1.71-.77-1.71-1.71,.77-1.71,1.71-1.71,1.71,.77,1.71,1.71" style="fill:#fff;"></path></g></g></g><g id="freepik--Video_Icon--inject-142"><path d="M288.96,299.78l-6.28-13.57c-1.15-2.48,.82-5.28,3.55-5.03l14.89,1.35,14.89,1.35c2.73,.25,4.16,3.35,2.58,5.59l-8.62,12.22-8.62,12.22c-1.58,2.24-4.98,1.93-6.13-.56l-6.28-13.57Z" style="opacity:.1;"></path><path d="M281.13,291.95l-6.28-13.57c-1.15-2.48,.82-5.28,3.55-5.03l14.89,1.35,14.89,1.35c2.73,.25,4.16,3.35,2.58,5.59l-8.62,12.22-8.62,12.22c-1.58,2.24-4.98,1.93-6.13-.56l-6.28-13.57Z" style="fill:#455a64;"></path></g><g id="freepik--Envelope--inject-142"><g><rect x="27.44" y="227.51" width="66.74" height="48.69" rx="3.25" ry="3.25" transform="translate(64.38 -7.21) rotate(14.36)" style="fill:#FF725E;"></rect><g><path d="M94.96,241.13s-.23,.14-.69,.36c-.5,.23-1.17,.54-2.01,.93-1.8,.81-4.32,1.94-7.41,3.32-3.15,1.39-6.88,3.04-11.02,4.87-2.08,.91-4.26,1.87-6.52,2.86-1.13,.49-2.28,1-3.45,1.51-1.22,.53-2.63,.66-3.96,.34-1.33-.32-2.53-1.08-3.36-2.11-.78-1.01-1.55-2.01-2.3-2.99-1.5-1.96-2.94-3.85-4.32-5.65-2.74-3.6-5.21-6.85-7.29-9.59-2.04-2.71-3.69-4.92-4.88-6.49-.54-.74-.98-1.33-1.31-1.78-.29-.41-.44-.63-.43-.64,.01-.01,.19,.19,.51,.58,.35,.43,.81,1.01,1.38,1.72,1.22,1.55,2.92,3.73,5.01,6.39,2.11,2.73,4.61,5.95,7.38,9.53,1.39,1.8,2.84,3.68,4.34,5.64,.75,.97,1.52,1.97,2.3,2.97,.77,.94,1.87,1.64,3.09,1.93,2.52,.72,4.8-.95,7.08-1.81,2.26-.98,4.45-1.93,6.53-2.83,4.15-1.79,7.9-3.4,11.07-4.76,3.12-1.32,5.66-2.4,7.48-3.17,.85-.35,1.53-.63,2.04-.84,.47-.19,.72-.28,.73-.26Z" style="fill:#263238;"></path><path d="M53.08,248.27c.07,.13-5.38,3.31-12.17,7.11-6.8,3.8-12.36,6.78-12.43,6.66-.07-.13,5.38-3.31,12.18-7.11,6.79-3.8,12.36-6.78,12.43-6.66Z" style="fill:#263238;"></path><path d="M69.08,252.37c.13-.07,3.31,5.38,7.11,12.17,3.8,6.8,6.78,12.36,6.66,12.43-.13,.07-3.31-5.38-7.11-12.18-3.8-6.79-6.78-12.36-6.66-12.43Z" style="fill:#263238;"></path></g></g></g><g id="freepik--Paper_planes--inject-142"><g><g><polygon points="437.78 273.52 475.68 217.05 405.93 219.02 416.91 237.57 413.91 250.77 426.31 254.2 437.78 273.52" style="fill:#fff;"></polygon><polygon points="416.91 237.57 475.68 217.05 426.31 254.2 413.91 250.77 416.91 237.57" style="opacity:.3;"></polygon><g><line x1="475.68" y1="217.05" x2="413.91" y2="250.77"></line><path d="M413.91,250.77c-.07-.13,13.7-7.78,30.76-17.09,17.06-9.31,30.94-16.76,31.01-16.63,.07,.13-13.7,7.78-30.76,17.09-17.06,9.31-30.94,16.76-31.01,16.63Z" style="fill:#263238;"></path></g><path d="M426.31,254.2s.07-.08,.24-.21c.19-.15,.43-.34,.73-.58,.67-.52,1.62-1.26,2.82-2.19,2.49-1.91,6.06-4.63,10.45-7.99,8.88-6.73,21.09-15.99,34.6-26.22l.24,.45-.21,.07c-16.06,5.57-30.6,10.61-41.16,14.27-5.25,1.79-9.51,3.25-12.49,4.27-1.45,.48-2.59,.87-3.41,1.14l-.89,.28c-.2,.06-.31,.09-.31,.08,0,0,.1-.05,.29-.13l.87-.33c.8-.29,1.93-.7,3.37-1.23,2.97-1.06,7.21-2.57,12.44-4.43,10.55-3.7,25.07-8.79,41.11-14.42l.21-.07c.14-.05,.28,.02,.33,.16,.04,.11,0,.23-.09,.29-13.54,10.19-25.79,19.4-34.69,26.1-4.43,3.3-8.03,5.98-10.54,7.86-1.23,.9-2.2,1.61-2.88,2.12-.31,.22-.56,.4-.76,.54-.17,.12-.26,.18-.27,.17Z" style="fill:#263238;"></path></g><path d="M437.78,273.52s-.07-.1-.2-.31c-.14-.23-.33-.55-.58-.95-.53-.87-1.29-2.13-2.27-3.75-2-3.33-4.91-8.15-8.56-14.22l.1,.07c-3.68-1.01-7.85-2.15-12.41-3.4l-.18-.05,.04-.18c.91-4.04,1.91-8.49,2.98-13.21l.03,.16c-3.36-5.66-7.08-11.92-11-18.54l-.21-.36h.42c10.42-.31,21.81-.64,33.66-.98,12.74-.35,24.95-.69,36.09-1h.48l-.27,.38c-11.15,16.51-20.68,30.62-27.43,40.63-3.36,4.95-6.03,8.89-7.87,11.6-.9,1.33-1.6,2.35-2.09,3.07-.23,.33-.41,.59-.54,.78-.12,.17-.18,.26-.18,.25,0,0,.06-.11,.18-.29,.13-.2,.31-.47,.54-.82,.48-.73,1.18-1.79,2.08-3.15,1.83-2.75,4.47-6.73,7.8-11.74,6.67-10,16.09-24.11,27.1-40.61l.21,.38c-11.14,.32-23.34,.67-36.09,1.03-11.85,.33-23.24,.65-33.66,.94l.2-.37c3.91,6.63,7.61,12.9,10.96,18.57l.04,.08-.02,.09c-1.08,4.71-2.1,9.17-3.03,13.2l-.14-.23c4.54,1.27,8.72,2.44,12.39,3.46l.06,.02,.03,.06c3.56,6.07,6.38,10.89,8.33,14.22,.96,1.66,1.71,2.94,2.23,3.83,.25,.43,.44,.76,.58,1,.13,.23,.2,.35,.2,.35Z" style="fill:#263238;"></path></g><g><g><polygon points="108.13 196.43 49.99 109.82 156.98 112.83 140.14 141.29 144.74 161.55 125.73 166.8 108.13 196.43" style="fill:#fff;"></polygon><polygon points="140.14 141.29 49.99 109.82 125.73 166.8 144.74 161.55 140.14 141.29" style="opacity:.3;"></polygon><g><line x1="49.99" y1="109.82" x2="144.74" y2="161.55"></line><path d="M144.74,161.55c-.07,.13-21.34-11.35-47.5-25.63-26.17-14.29-47.32-25.97-47.25-26.09s21.33,11.35,47.5,25.64c26.16,14.28,47.32,25.97,47.25,26.09Z" style="fill:#263238;"></path></g><path d="M125.73,166.8s-.14-.09-.4-.27c-.28-.2-.66-.48-1.15-.84-1.03-.76-2.51-1.86-4.41-3.27-3.83-2.87-9.34-6.99-16.15-12.09-13.62-10.26-32.42-24.42-53.19-40.07-.11-.09-.14-.25-.05-.36,.07-.09,.19-.13,.29-.09,.1,.04,.21,.07,.32,.11,24.63,8.62,46.92,16.42,63.08,22.07,8.05,2.84,14.56,5.15,19.09,6.75,2.23,.8,3.98,1.43,5.18,1.86,.57,.21,1.02,.38,1.34,.5,.3,.11,.45,.19,.45,.19,0,0-.16-.04-.47-.14-.33-.11-.78-.26-1.36-.45-1.21-.41-2.97-1.01-5.21-1.77-4.54-1.56-11.08-3.81-19.15-6.59-16.17-5.62-38.48-13.37-63.13-21.93l-.32-.11,.24-.45c20.74,15.69,39.5,29.89,53.1,40.19,6.76,5.15,12.24,9.32,16.05,12.22,1.87,1.44,3.33,2.56,4.35,3.34,.48,.38,.85,.67,1.12,.88,.25,.2,.37,.31,.37,.31Z" style="fill:#263238;"></path></g><path d="M108.13,196.43s.1-.19,.3-.53c.21-.35,.5-.86,.89-1.52,.79-1.34,1.94-3.3,3.43-5.85,2.99-5.09,7.35-12.49,12.84-21.81l.03-.06,.06-.02c5.63-1.57,12.03-3.35,19.01-5.29l-.14,.23c-1.41-6.18-2.97-13.01-4.63-20.25l-.02-.09,.04-.08c5.13-8.69,10.82-18.31,16.82-28.47l.2,.37c-15.99-.45-33.46-.93-51.64-1.44-19.55-.56-38.27-1.09-55.35-1.58l.21-.38c16.93,25.32,31.41,46.97,41.66,62.3,5.12,7.68,9.19,13.78,11.98,17.97,1.39,2.09,2.46,3.7,3.2,4.8,.36,.54,.63,.96,.82,1.25,.19,.28,.28,.44,.28,.44,0,0-.09-.13-.28-.4-.19-.28-.47-.68-.82-1.21-.74-1.09-1.81-2.67-3.2-4.73-2.81-4.16-6.9-10.21-12.05-17.83-10.33-15.33-24.92-36.99-41.99-62.32l-.27-.39h.47c17.08,.49,35.81,1.01,55.35,1.56,18.18,.52,35.65,1.02,51.64,1.47h.42l-.21,.37c-6.02,10.15-11.72,19.76-16.86,28.45l.03-.16c1.64,7.24,3.18,14.07,4.58,20.26l.04,.18-.18,.05c-6.98,1.92-13.39,3.68-19.02,5.23l.1-.07c-5.59,9.33-10.02,16.73-13.07,21.82-1.51,2.51-2.67,4.45-3.47,5.77-.39,.64-.68,1.13-.89,1.48-.2,.33-.3,.48-.3,.48Z" style="fill:#263238;"></path></g><g><g><polygon points="79.11 312.45 29.93 378.1 114.06 380.09 102 357.05 106.44 341.34 91.72 336.43 79.11 312.45" style="fill:#fff;"></polygon><polygon points="102 357.05 29.93 378.1 91.72 336.43 106.44 341.34 102 357.05" style="opacity:.3;"></polygon><g><line x1="29.93" y1="378.1" x2="106.44" y2="341.34"></line><path d="M106.44,341.34c.06,.13-17.02,8.46-38.14,18.61-21.13,10.15-38.31,18.27-38.37,18.15-.06-.13,17.01-8.46,38.14-18.61,21.12-10.15,38.3-18.27,38.37-18.14Z" style="fill:#263238;"></path></g><path d="M91.72,336.43s-.1,.09-.3,.24c-.23,.16-.53,.38-.91,.65-.83,.58-2.02,1.4-3.54,2.46-3.11,2.13-7.58,5.19-13.09,8.96-11.1,7.54-26.41,17.92-43.32,29.41l-.22-.47,.25-.07c19.7-5.71,37.53-10.88,50.47-14.63,6.44-1.84,11.67-3.34,15.31-4.38,1.79-.5,3.19-.89,4.17-1.16,.46-.12,.82-.22,1.09-.29,.25-.06,.37-.09,.38-.08,0,0-.12,.05-.36,.13-.27,.08-.62,.2-1.07,.34-.98,.3-2.37,.72-4.14,1.26-3.63,1.08-8.84,2.63-15.26,4.54-12.93,3.79-30.74,9.01-50.43,14.78l-.25,.07c-.14,.04-.28-.04-.32-.18-.03-.11,.01-.23,.1-.29,16.95-11.43,32.28-21.78,43.41-29.28,5.55-3.71,10.05-6.72,13.18-8.82,1.54-1.02,2.75-1.82,3.6-2.38,.4-.26,.71-.46,.94-.61,.21-.13,.33-.2,.33-.19Z" style="fill:#263238;"></path></g><path d="M79.11,312.45s.07,.12,.22,.39c.15,.28,.36,.68,.64,1.19,.58,1.08,1.41,2.64,2.49,4.66,2.19,4.12,5.38,10.12,9.4,17.66l-.09-.08c4.36,1.44,9.32,3.08,14.73,4.87l.18,.06-.05,.18c-1.35,4.8-2.84,10.1-4.42,15.72l-.02-.16c3.69,7.03,7.77,14.81,12.09,23.02l.19,.37h-.42c-12.57-.3-26.31-.62-40.61-.96-15.37-.37-30.1-.72-43.53-1.05h-.48l.29-.39c14.45-19.19,26.8-35.6,35.55-47.22,4.35-5.77,7.81-10.35,10.19-13.5,1.17-1.55,2.08-2.75,2.71-3.57,.3-.39,.53-.69,.7-.91,.16-.2,.23-.29,.23-.29,0,0-.08,.12-.24,.34-.17,.23-.4,.54-.7,.95-.63,.84-1.53,2.07-2.7,3.65-2.37,3.18-5.81,7.81-10.14,13.63-8.67,11.62-20.9,28.03-35.21,47.22l-.19-.39c13.43,.31,28.16,.66,43.53,1.01,14.29,.34,28.03,.67,40.61,.97l-.22,.36c-4.3-8.22-8.37-16.01-12.04-23.05l-.04-.08,.02-.08c1.6-5.61,3.1-10.91,4.46-15.71l.13,.24c-5.4-1.81-10.35-3.47-14.71-4.94l-.06-.02-.03-.06c-3.92-7.54-7.03-13.53-9.17-17.65-1.06-2.06-1.89-3.65-2.45-4.74-.27-.53-.48-.94-.63-1.23-.14-.28-.21-.43-.21-.43Z" style="fill:#263238;"></path></g></g><g id="freepik--Character--inject-142"><g><path d="M314,349.91l-6.19,.27-22.27,48.34-35.22,17.56,1.68,18.13s43.36-8,54.17-14.05c10.81-6.05,24.59-45.36,24.59-45.36,.07,.28-14.65-24.87-14.65-24.87" style="fill:#ffbf9d;"></path><g><path d="M252.38,394.09l-4.51-4.75c-.87-.56-1.89-.84-2.92-.81l-14.3,.43c-2.7,.27-5.13,1.74-6.62,4.01l-5.2,8.85s-3.5,6.06-3.05,7.53c.67,2.22,3.02,1.77,3.02,1.77,0,0,.5,2.8,1.43,3.37,1.56,.95,3.47,.22,3.47,.22,.52,1.07,1.63,1.79,2.82,1.7,.24-.02,.49-.06,.74-.14,1.7-.51,2.46-3.8,2.46-3.8l7.25-1.34s10.41,6.96,14.09,11.53c3.67,4.56,13.29,1.08,13.29,1.08l3.6-17.2-15.56-12.45Z" style="fill:#ffbf9d;"></path><path d="M241.84,396.15c.01,.1-1.15,.32-3.13,.52-1.97,.22-4.76,.3-7.9,.71l.34-.25c-.51,1.12-1.14,2.28-1.86,3.42-2.22,3.55-4.84,6.32-6.88,8.14-2.05,1.81-3.53,2.65-3.59,2.56-.08-.11,1.25-1.13,3.15-3.03,1.89-1.9,4.38-4.68,6.55-8.15,.7-1.12,1.32-2.24,1.83-3.31l.11-.22,.23-.03c3.23-.36,6.01-.33,7.98-.39,1.97-.04,3.15-.08,3.16,.03Z" style="fill:#ff9a6c;"></path><path d="M242.17,402.97c.02,.09-.96,.46-2.69,.72-1.73,.25-4.22,.33-7-.24l.51-.29c-.29,.85-.63,1.72-1.04,2.59-1.51,3.17-3.64,5.59-5.38,7.06-1.74,1.48-3.02,2.1-3.07,2.01-.08-.12,1.06-.92,2.64-2.48,1.58-1.55,3.54-3.94,5-6.98,.4-.84,.73-1.68,1.03-2.49l.13-.37,.38,.08c5.35,1.19,9.48,.12,9.51,.39Z" style="fill:#ff9a6c;"></path><g><path d="M260.32,406.5c-4.25-1.98-8.5-3.95-12.76-5.93-1.77-.82-3.61-1.66-5.55-1.65-2.1,0-4.05,1-5.91,1.96-2.29,1.18-4.58,2.37-6.86,3.55-.37,.19-.78,.42-.91,.82-.17,.52,.21,1.06,.59,1.45,3.43,3.47,9.59,3.72,13.29,.54,1.1,3,2.24,6.06,4.3,8.49,2.06,2.44,5.27,4.16,8.41,3.58" style="fill:#ffbf9d;"></path><path d="M254.92,419.32s-.11,.06-.34,.11c-.23,.06-.58,.1-1.04,.12-.91,.02-2.3-.15-3.84-.93-1.53-.76-3.2-2.14-4.52-4.12-1.35-1.97-2.35-4.45-3.34-7.12l.64,.17c-1.88,1.66-4.62,2.54-7.43,2.32-1.4-.1-2.83-.48-4.14-1.16-.64-.36-1.28-.76-1.84-1.27-.28-.26-.57-.49-.82-.84-.24-.33-.5-.81-.36-1.39,.11-.47,.48-.77,.76-.95,.3-.19,.56-.31,.83-.45,.53-.28,1.06-.55,1.59-.82,1.05-.54,2.09-1.08,3.11-1.6,2.04-1.01,3.97-2.2,6.15-2.68,2.2-.53,4.36,.15,6.05,.92,1.73,.79,3.28,1.55,4.72,2.24,2.76,1.35,5.04,2.46,6.79,3.31,1.59,.8,2.46,1.27,2.44,1.33-.03,.06-.95-.31-2.59-1.01-1.78-.79-4.1-1.81-6.91-3.05-1.47-.66-3.05-1.37-4.75-2.13-1.69-.72-3.61-1.29-5.58-.79-1.97,.45-3.87,1.62-5.92,2.65-1.02,.53-2.05,1.07-3.11,1.62-.53,.27-1.06,.55-1.59,.82-.54,.28-1.11,.55-1.13,.82-.11,.33,.38,.92,.91,1.34,.5,.46,1.08,.83,1.66,1.16,1.19,.62,2.5,.97,3.79,1.08,2.58,.22,5.11-.58,6.84-2.06l.44-.38,.19,.55c.95,2.68,1.89,5.11,3.14,7.03,1.22,1.93,2.75,3.27,4.19,4.07,2.94,1.61,5.03,.96,5,1.12Z" style="fill:#ff9a6c;"></path></g></g><g><path d="M431.24,244.95c.78-9.7,2.96-19.28,3.25-29.01,.29-9.73-1.58-20.01-7.88-27.43-6.3-7.42-17.88-10.88-26.18-5.8l-2.19,8.15c.58,37.66-2.43,75.68-1.85,113.34,.08,4.95,3.77,9.67,5.7,14.22,1.94,4.55,6.18,8.49,11.13,8.52,6.47,.04,11.15-6.21,13.57-12.21,8.78-21.76,2.58-46.4,4.45-69.79Z" style="fill:#263238;"></path><path d="M411.3,193.01c-1.25-2.5-2.53-5.03-4.48-7.03-1.95-2-4.7-3.41-7.47-3.07-1.3,.16-2.66,.8-3.18,2.01-.52,1.21,.3,2.92,1.61,2.9l.26,.26c2.73,2.77,5.52,5.49,8.36,8.14,.71,.67,1.46,1.35,2.37,1.7,.92,.35,2.06,.29,2.75-.39,1.15-1.14,.5-3.07-.23-4.52Z" style="fill:#FF725E;"></path><path d="M416.14,202.91c-8.88-12.49-21.41-20.18-36.68-21.47-8.61-.73-12.3,.82-18.62,2.08-6.32,1.25-12.15,4.2-16.21,9.21-4.82,5.95-8.99,12.69-10.34,20.22-1.38,7.74-1.31,15.41-.25,21.8,1.28,7.76,5.73,19.79,9.91,26.45l13.12,2.51c10.97,1.12,22.09,2.24,32.97,.46,10.88-1.78,21.68-6.84,28.05-15.84,8.85-12.5,6.92-32.94-1.96-45.42Z" style="fill:#263238;"></path><g><path d="M398.43,201.58l-25.82-12.35-6.99,.34c-15.6-1-27.53,15.47-28.49,28.1-1.07,14.03-1.81,31.2-.29,41.7,3.07,21.11,20.71,24.05,20.71,24.05,0,0-1.12,11.06-1.72,18.04l40.83-.18,8.3-92.09c.13-3.85-2.71-7.15-6.53-7.6Z" style="fill:#ffbf9d;"></path><path d="M368.38,256.61c-.07-1.11-.61-2.12-1.35-2.84-1.46-1.44-3.73-1.72-5.47-.69-1.74,1.04-2.85,3.33-2.69,5.54h0c.85,1.35,2.22,2.31,3.79,2.56,.24,.04,.49,.06,.74,.07,1.2,.05,2.45-.27,3.42-1.09,.98-.82,1.64-2.18,1.55-3.55Z" style="fill:#ff9a6c;"></path><g><path d="M341.52,236.85c-.07,1.43,1.08,2.66,2.57,2.76,1.48,.1,2.75-.97,2.82-2.4,.07-1.43-1.08-2.66-2.57-2.76-1.49-.1-2.75,.98-2.82,2.4Z" style="fill:#263238;"></path><path d="M341.41,225.01c.33,.36,2.4-1.13,5.3-1.09,2.9,0,5.02,1.53,5.34,1.17,.16-.16-.18-.8-1.1-1.48-.91-.69-2.46-1.36-4.27-1.38-1.81-.01-3.34,.63-4.23,1.3-.9,.67-1.21,1.31-1.05,1.47Z" style="fill:#263238;"></path><path d="M358.48,248.99c.02-.16-1.79-.5-4.71-.91-.74-.09-1.44-.24-1.56-.75-.17-.54,.15-1.33,.52-2.19,.72-1.79,1.48-3.66,2.27-5.63,3.15-8.01,5.45-14.6,5.12-14.72-.32-.12-3.14,6.27-6.3,14.28-.76,1.98-1.49,3.86-2.18,5.66-.29,.84-.79,1.79-.42,2.91,.19,.56,.73,.97,1.21,1.1,.47,.15,.89,.16,1.26,.19,2.94,.2,4.77,.23,4.79,.07Z" style="fill:#263238;"></path><path d="M357.52,283.39s14.16,1.1,28.31-7.16c0,0-7.71,14.51-28.77,12.26l.45-5.1Z" style="fill:#ff9a6c;"></path><path d="M367.01,251.11c-.47-.03-.52,3.12-3.25,5.33-2.72,2.21-6.08,1.81-6.11,2.25-.05,.2,.74,.62,2.16,.68,1.39,.07,3.43-.36,5.1-1.7,1.67-1.35,2.4-3.18,2.52-4.47,.14-1.32-.2-2.1-.42-2.09Z" style="fill:#263238;"></path><path d="M343.08,214.93c.48,.72,2.71,.27,5.31,.52,2.61,.17,4.74,.96,5.32,.33,.26-.31-.02-1-.91-1.73-.88-.72-2.41-1.4-4.2-1.54-1.79-.14-3.4,.28-4.37,.86-.99,.58-1.37,1.22-1.16,1.57Z" style="fill:#263238;"></path><path d="M371.19,237.63c-.02,1.43-1.25,2.59-2.74,2.59-1.49,0-2.68-1.14-2.66-2.57,.02-1.43,1.25-2.59,2.74-2.59,1.49,0,2.68,1.15,2.66,2.57Z" style="fill:#263238;"></path><path d="M380.68,226.55c-.35,.33-2.32-1.28-5.23-1.42-2.9-.18-5.11,1.21-5.4,.83-.15-.17,.23-.78,1.19-1.41,.95-.63,2.54-1.2,4.35-1.1,1.81,.1,3.3,.84,4.14,1.57,.86,.73,1.13,1.38,.96,1.53Z" style="fill:#263238;"></path><path d="M379.57,217.15c-.6,.63-2.81-.17-5.5-.33-2.69-.25-5,.19-5.49-.52-.21-.35,.18-.99,1.21-1.56,1.01-.57,2.68-1,4.53-.86,1.85,.15,3.42,.82,4.32,1.55,.92,.73,1.2,1.42,.93,1.73Z" style="fill:#263238;"></path></g><g><path d="M398.96,244.21c.02-1.57,1.89-5.24,3.44-5.47,4.15-.59,11.6-.16,11.53,10.35-.09,14.36-14.49,11.31-14.52,10.9-.02-.32-.54-10.36-.45-15.78Z" style="fill:#ffbf9d;"></path><path d="M403.41,254.76c.06-.05,.25,.18,.67,.37,.41,.19,1.12,.33,1.87,.05,1.52-.55,2.81-2.95,2.9-5.54,.05-1.31-.22-2.55-.68-3.59-.43-1.05-1.11-1.79-1.87-1.93-.76-.18-1.3,.27-1.48,.68-.2,.4-.11,.69-.18,.71-.04,.04-.31-.24-.19-.83,.06-.29,.23-.62,.57-.9,.35-.28,.85-.42,1.39-.36,1.11,.08,2.1,1.11,2.6,2.24,.56,1.14,.89,2.54,.84,4.01-.11,2.89-1.61,5.59-3.69,6.18-1.01,.26-1.85-.05-2.29-.4-.44-.36-.52-.68-.47-.7Z" style="fill:#ff9a6c;"></path></g></g><path d="M402.98,238.82l-3.89,3.52c-14.68-16.09-42.8-55.79-41.24-53.43,0,0,11.05-3.69,22.59-.91,11.54,2.78,33.28,10.12,32,23.87-1.27,13.74-9.46,26.95-9.46,26.95Z" style="fill:#263238;"></path><path d="M423.98,237.08s-.03-.29-.16-.84c-.13-.55-.39-1.34-.82-2.32-.87-1.95-2.6-4.63-5.52-7.13-2.88-2.56-6.95-4.77-11.64-6.61-4.68-1.88-9.99-3.46-15.13-6.09-5.18-2.55-9.74-5.69-13.6-8.88-3.84-3.21-6.97-6.48-9.38-9.4-2.42-2.92-4.14-5.46-5.3-7.24-.53-.84-.96-1.53-1.3-2.07-.3-.47-.47-.71-.49-.7-.02,.01,.1,.28,.36,.77,.27,.49,.64,1.23,1.19,2.15,1.09,1.83,2.76,4.43,5.14,7.41,2.38,2.98,5.5,6.32,9.35,9.59,3.87,3.24,8.47,6.44,13.7,9.01,5.21,2.67,10.56,4.23,15.21,6.07,4.67,1.79,8.69,3.91,11.56,6.37,2.91,2.41,4.67,4.98,5.6,6.86,.93,1.9,1.17,3.06,1.24,3.04Z" style="fill:#455a64;"></path><path d="M419.67,239.05s.22-1.16-.34-3.16c-.54-1.99-2.05-4.74-4.92-7.1-2.84-2.43-7.01-4.1-11.62-5.49-4.64-1.36-9.65-3.03-14.51-5.71-4.86-2.66-9.16-5.78-12.67-9.06-3.53-3.26-6.33-6.58-8.46-9.53-2.16-2.93-3.57-5.53-4.58-7.29-.44-.85-.79-1.54-1.08-2.09-.25-.47-.4-.72-.42-.71-.02,.01,.08,.28,.29,.77,.25,.57,.57,1.28,.96,2.15,.94,1.81,2.29,4.47,4.41,7.46,2.1,3.01,4.88,6.4,8.42,9.72,3.52,3.34,7.87,6.52,12.78,9.21,4.91,2.71,10.04,4.4,14.67,5.72,4.61,1.35,8.7,2.93,11.49,5.24,2.83,2.25,4.37,4.87,4.97,6.78,.64,1.92,.52,3.09,.62,3.08Z" style="fill:#455a64;"></path><path d="M400.87,263.01c0-.1,1.23-.17,3.38-.58,2.14-.44,5.21-1.53,8.31-3.93,3.13-2.36,6.02-6.17,8.21-10.87,2.18-4.71,3.67-10.32,4.22-16.29,.26-2.99,.23-5.92-.1-8.72-.37-2.8-1.02-5.45-1.85-7.91-1.72-4.91-4.18-8.97-6.63-12.04-4.93-6.19-9.21-8.83-9.03-9.02,.02-.03,.28,.13,.76,.47,.47,.34,1.21,.81,2.07,1.52,1.75,1.37,4.18,3.54,6.72,6.62,2.55,3.07,5.12,7.17,6.93,12.17,.87,2.51,1.55,5.22,1.94,8.09,.35,2.87,.39,5.88,.13,8.93-.56,6.08-2.11,11.78-4.38,16.58-2.27,4.79-5.31,8.67-8.59,11.03-3.25,2.41-6.44,3.42-8.65,3.76-1.1,.23-1.98,.17-2.56,.23-.59,.03-.89,.02-.89-.01Z" style="fill:#455a64;"></path></g><g><g><polygon points="356.15 296.51 396.68 292.13 404.1 298.88 375.17 315.89 362.4 322.5 349.8 318.67 345.8 311.16 356.15 296.51" style="fill:#ffbf9d;"></polygon><g><path d="M301.53,345.85s12.7-24.38,15.85-29.71c5.36-9.08,15.36-14.22,15.36-14.22l23.41-5.42s-2.43,11.73,12.14,12.54c18.53,1.03,30.04-16.74,30.04-16.74,0,0,21.14,2.18,26.98,4.63,5.84,2.45,22.35,9.36,24.78,31.32l5.66,35.85-44.67,3.4,.62,47.73,21.98,37.6h-107.81c1.69,.45,7.63-24.66,3.73-44.5l-7.36-17.86c-2.94-7.15-4.77-14.73-5.21-22.45-.29-5.08-.15-8.93-.15-8.93,0,0-11.46-3.94-15.36-13.25Z" style="fill:#FF725E;"></path><g><path d="M336.72,432.02l74.89-22.48-.53-42.03,38.14-2.91s-3.04,21.78-3.49,32.94c-.64,16.06-8.37,38.51-13.53,43.27-5.17,4.77-97.46,9.94-97.46,9.94l1.99-18.75Z" style="fill:#ffbf9d;"></path><path d="M294.25,445.24c.62,1.02,1.79,1.63,2.96,1.43,.23-.04,.48-.11,.73-.21,1.64-.67,1.22-4.09,1.22-4.09l7.97-1.94s11.02,5.96,15.1,10.15c4.08,4.2,13.33-.17,13.33-.17l1.97-17.46-15.9-12.29s.97,.73-.24-1.7c-1.22-2.43-5.81-1.12-5.81-1.12-.82-1.19-3.91-1.4-3.91-1.4l-12.92,2.51c-2.66,.52-4.95,2.21-6.21,4.61l-4.84,9.15s-2.42,6.51-1.84,7.93c.88,2.15,3.17,1.48,3.17,1.48,0,0,.96,4.08,2.06,4.14,1.1,.06,3.17-1.02,3.17-1.02h0Z" style="fill:#ffbf9d;"></path><path d="M321.03,430.73c0,.14-1.75,.11-4.52,.45-2.77,.35-6.57,1.14-10.48,2.81-1.95,.83-3.74,1.79-5.3,2.77-1.51,1.01-3.09,1.86-3.51,3.05-.21,.58-.05,1.14,.26,1.54,.31,.4,.7,.65,1.05,.76,.71,.23,1.13,0,1.16,.08,.03,.02-.38,.39-1.24,.23-.42-.08-.91-.31-1.33-.77-.42-.43-.71-1.24-.47-2.02,.22-.78,.83-1.42,1.48-1.96,.67-.52,1.38-1.05,2.17-1.56,1.57-1.04,3.39-2.04,5.39-2.89,4-1.72,7.93-2.43,10.75-2.63,2.84-.19,4.59,.05,4.58,.14Z" style="fill:#ff9a6c;"></path><path d="M322.59,438.97c0,.25-5.32,.44-11.8,1.32-6.49,.86-11.67,2.09-11.73,1.85-.03-.11,1.24-.55,3.33-1.09,2.09-.54,5.02-1.15,8.29-1.59,3.27-.44,6.26-.63,8.42-.66,2.16-.04,3.5,.06,3.5,.17Z" style="fill:#ff9a6c;"></path><path d="M294.3,444.9s-.14-.48-.27-1.38c-.12-.89-.28-2.19-.3-3.82,0-.81,.01-1.71,.16-2.67,.13-.97,.51-2.01,1.06-2.94,1.04-1.87,2.53-3.84,4.5-5.38,1.96-1.53,3.94-2.84,5.99-3.63,2.03-.79,3.96-1.1,5.56-1.29,1.61-.18,2.91-.25,3.81-.28,.9-.03,1.4-.02,1.4,.03,.02,.13-1.97,.35-5.13,.83-1.57,.27-3.44,.63-5.36,1.42-1.91,.78-3.85,2.09-5.75,3.57-1.9,1.5-3.29,3.3-4.36,5.12-1.13,1.74-1.22,3.65-1.29,5.23-.07,3.18,.17,5.18-.01,5.19Z" style="fill:#ff9a6c;"></path><path d="M311.29,419.8c.01,.12-1.94,.33-5.02,.93-2.96,.69-7.75,1.28-10.16,5.63-2.67,3.99-4.91,7.73-5.79,10.73-.94,2.98-.68,4.98-.86,4.97-.04,0-.16-.48-.18-1.38-.03-.89,.06-2.21,.47-3.76,.76-3.15,2.98-7.03,5.66-11.04,.69-1.01,1.44-1.97,2.34-2.76,.89-.8,1.96-1.31,2.95-1.68,2.01-.74,3.89-1.06,5.46-1.31,3.15-.46,5.12-.45,5.12-.35Z" style="fill:#ff9a6c;"></path><path d="M319.17,448.03s-.3-.16-.82-.53c-.59-.41-1.36-.93-2.32-1.58-2.04-1.34-5.07-3.24-9.02-5.24l.19,.02c-2.38,.6-5.06,1.27-7.96,2l.25-.36c.07,.66,.08,1.3,0,1.98-.08,.67-.24,1.39-.76,2.01-.27,.3-.69,.5-1.03,.57-.35,.12-.74,.19-1.13,.15-.78-.05-1.53-.4-2.09-.96-.14-.14-.27-.29-.39-.45l-.08-.12-.04-.06-.02-.03h0c-.11-.04,.93,.25,.49,.13h-.02l-.25,.14c-.33,.16-.67,.31-1.01,.45-.35,.14-.7,.26-1.08,.36-.19,.05-.38,.09-.59,.11-.2,.02-.43,.05-.76-.09-.48-.29-.67-.66-.87-1.01-.19-.35-.35-.71-.49-1.08-.28-.73-.5-1.47-.7-2.24l.5,.29c-1.03,.27-2.29,.11-3.09-.79-.36-.42-.67-.95-.68-1.58-.02-.57,.07-1.07,.16-1.58,.41-2.02,1.06-3.98,1.78-5.98v-.02l.02-.03c.82-1.56,1.69-3.21,2.58-4.88,.55-1.04,1.09-2.07,1.64-3.09,.55-.99,1.02-2.1,1.82-3.02,.77-.91,1.73-1.65,2.77-2.17,1.04-.55,2.23-.76,3.27-.95,4.28-.82,8.36-1.6,12.18-2.33h.1c.77,.06,1.48,.19,2.2,.39,.7,.22,1.44,.47,1.97,1.16l-.46-.11c1.34-.67,2.93-.8,4.2-.09,1.28,.7,1.93,1.95,2.33,3.14l-.11-.16c4.56,3.51,8.29,6.37,10.95,8.42,1.23,.97,2.21,1.74,2.96,2.33,.67,.54,1.01,.84,1,.86-.02,.02-.4-.22-1.1-.72-.77-.55-1.78-1.28-3.05-2.2-2.7-1.99-6.48-4.78-11.12-8.2l-.07-.06-.04-.11c-.36-1.05-1-2.18-2.05-2.72-1.02-.58-2.42-.45-3.54,.12l-.28,.14-.19-.25c-.31-.41-.96-.69-1.6-.87-.65-.18-1.35-.3-2.05-.36h.1c-3.81,.75-7.89,1.55-12.17,2.39-1.09,.21-2.11,.39-3.06,.89-.95,.47-1.81,1.14-2.51,1.97-.71,.8-1.16,1.84-1.72,2.87-.54,1.02-1.09,2.06-1.63,3.09-.88,1.67-1.76,3.32-2.58,4.88l.02-.05c-.7,1.95-1.36,3.91-1.75,5.84-.09,.48-.17,.97-.16,1.4-.01,.37,.2,.76,.47,1.08,.52,.63,1.48,.76,2.26,.57l.4-.1,.1,.39c.18,.73,.39,1.46,.65,2.15,.25,.65,.6,1.44,.98,1.68,.02,0,.16,.04,.33,.01,.16-.01,.32-.05,.49-.09,.33-.08,.66-.2,.99-.32,.33-.13,.65-.27,.96-.42l.23-.11h.02c-.44-.13,.6,.15,.49,.13h0l.02,.03,.03,.05,.06,.1c.09,.13,.19,.25,.3,.36,.44,.44,1.03,.72,1.62,.76,.3,.03,.59-.02,.88-.12,.32-.07,.53-.18,.71-.37,.71-.86,.71-2.3,.62-3.44l-.02-.3,.27-.06c2.91-.69,5.6-1.32,7.98-1.89l.1-.02,.09,.05c3.96,2.09,6.95,4.06,8.95,5.48,1,.72,1.75,1.3,2.24,1.71,.49,.41,.74,.63,.73,.65Z" style="fill:#ff9a6c;"></path></g></g></g><g><path d="M200.41,450.09l-28.31-74.34c-1.07-2.8,1-5.8,3.99-5.8h90.9c1.66,0,3.17,.96,3.87,2.46l27.22,70.91,57.1,.97c2.36,0,4.27,1.91,4.27,4.27h0c0,2.36-1.91,4.27-4.27,4.27H204.4c-1.77,0-3.36-1.1-3.99-2.75Z" style="fill:#455a64;"></path><path d="M238.88,411.4c0,3.29-2.67,5.96-5.96,5.96s-5.96-2.67-5.96-5.96,2.67-5.96,5.96-5.96,5.96,2.67,5.96,5.96Z" style="fill:#fff;"></path></g><path d="M328.45,318.92c.13,.07-1.08,2.34-2.79,6.13-1.71,3.78-3.82,9.12-5.53,15.21-1.69,6.1-2.65,11.76-3.15,15.88-.5,4.12-.64,6.69-.79,6.69-.06,0-.09-.65-.09-1.81,0-1.17,.07-2.86,.24-4.94,.34-4.16,1.2-9.9,2.91-16.05,1.72-6.15,3.95-11.5,5.82-15.24,.93-1.87,1.74-3.35,2.35-4.35,.6-1,.96-1.54,1.02-1.51Z" style="fill:#263238;"></path><path d="M455.75,364.11s-.32,.08-.92,.14c-.69,.07-1.58,.16-2.68,.26-2.44,.2-5.82,.49-10.01,.84-8.63,.65-20.56,1.55-34.24,2.58l-.44,.03-.03-.44c-.29-4.55-.59-9.35-.9-14.28-.49-8.6-.9-16.79-1.03-24.25-.39-7.51,1.45-14.36,4.39-19.23,2.91-4.95,6.78-7.82,9.6-9.22,1.44-.68,2.59-1.13,3.4-1.32,.8-.23,1.23-.33,1.23-.3,.04,.12-1.7,.47-4.47,1.93-2.73,1.48-6.43,4.36-9.21,9.23-2.81,4.82-4.54,11.47-4.11,18.89,.18,7.44,.62,15.63,1.1,24.22,.3,4.93,.6,9.73,.88,14.27l-.47-.41c13.68-.9,25.62-1.69,34.26-2.27,4.2-.24,7.58-.44,10.03-.58,1.11-.05,2-.09,2.69-.12,.61-.02,.93-.01,.94,.01Z" style="fill:#263238;"></path><path d="M371.77,393.31c-.03,.06-.55-.14-1.5-.55-.48-.2-1.05-.46-1.67-.84-.63-.37-1.38-.75-2.12-1.3-1.54-1.01-3.23-2.43-4.93-4.18-1.66-1.79-3.31-3.92-4.72-6.36-1.38-2.46-2.37-4.97-3.05-7.32-.63-2.36-.99-4.54-1.07-6.38-.1-.92-.04-1.75-.03-2.48,0-.73,.06-1.36,.14-1.87,.13-1.02,.23-1.57,.29-1.57,.18,.02-.11,2.27,.24,5.86,.16,1.8,.58,3.91,1.24,6.2,.71,2.27,1.7,4.7,3.04,7.1,1.37,2.38,2.96,4.47,4.55,6.24,1.63,1.74,3.23,3.17,4.69,4.23,2.91,2.14,4.99,3.04,4.92,3.21Z" style="fill:#263238;"></path></g></g></g></svg>
